<?xml version="1.0" encoding="UTF-8"?>
<svg width="36px" height="31px" viewBox="0 0 36 31" version="1.1" xmlns="http://www.w3.org/2000/svg" xmlns:xlink="http://www.w3.org/1999/xlink">
    <!-- Generator: Sketch 50.2 (55047) - http://www.bohemiancoding.com/sketch -->
    <title>Page 1</title>
    <desc>Created with Sketch.</desc>
    <defs>
        <polygon id="path-1" points="0.018384556 0.0394925373 30.9864669 0.0394925373 30.9864669 27.9927372 0.018384556 27.9927372"></polygon>
        <polygon id="path-3" points="0 0.0164713115 17.9747048 0.0164713115 17.9747048 14.9999918 0 14.9999918"></polygon>
    </defs>
    <g id="Symbols" stroke="none" stroke-width="1" fill="none" fill-rule="evenodd">
        <g id="Header" transform="translate(-152.000000, -12.000000)">
            <g id="Page-1" transform="translate(152.000000, 12.000000)">
                <g id="Group-3" transform="translate(5.000000, 0.000000)">
                    <mask id="mask-2" fill="white">
                        <use xlink:href="#path-1"></use>
                    </mask>
                    <g id="Clip-2"></g>
                    <path d="M30.9864669,2.46336896 C30.9648028,2.70450328 30.9310499,2.94517791 30.9233498,3.18677194 C30.8733987,4.76254507 30.6952185,6.32590627 30.448216,7.87748239 C30.1573665,9.70437791 29.7591941,11.5072436 29.1988402,13.2692376 C28.7693884,14.6195899 28.2676033,15.9360496 27.6487604,17.202569 C26.6291915,19.2891958 25.351808,21.1744316 23.6980358,22.7701391 C22.5748942,23.8539063 21.3117938,24.7168913 19.9631542,25.4534585 C18.7957668,26.0911063 17.6142559,26.6984973 16.3628453,27.1340854 C15.5319495,27.4232794 14.6858929,27.6645809 13.8464991,27.9269451 C13.7289225,27.9637212 13.6107076,27.9981988 13.4735017,27.9920137 C13.7060615,27.7907899 13.9446059,27.5966287 14.170104,27.3870884 C15.0798363,26.5415301 15.8618183,25.5810466 16.5351207,24.5193869 C17.3040963,23.3068615 17.9128852,22.0098346 18.4021825,20.652169 C18.9266291,19.1969212 19.3312649,17.7023899 19.5809006,16.1684496 C19.7571658,15.0854764 19.9299598,13.9977391 20.0197681,12.9045272 C20.1199097,11.6857331 20.1247771,10.4583301 20.1693421,9.23464657 C20.1712571,9.1817809 20.1553781,9.12816299 20.1433292,9.04341075 C19.8692366,9.13359582 19.6108633,9.2158406 19.3542456,9.30364358 C18.2866806,9.66885552 17.2199534,10.0367421 16.1523485,10.4018287 C14.1060293,11.1016197 12.0588723,11.7986525 10.012992,12.4996973 C8.08692252,13.1596615 6.16508211,13.8333331 4.23562136,14.4820555 C2.82039356,14.9578884 1.45164582,15.5434227 0.139152896,16.2737212 C0.112262291,16.2886824 0.0789083655,16.2908137 0.018384556,16.3070704 C0.0287178893,16.2197272 0.0298749035,16.1529451 0.0450357786,16.0899242 C0.557632947,13.9554884 1.65049266,12.2159361 3.28272046,10.8354107 C4.30823398,9.96799582 5.44158919,9.29127343 6.61647722,8.67782269 C8.31716834,7.78980478 10.0963768,7.1204794 11.9052687,6.5240794 C13.4006896,6.03102866 14.8859766,5.50446149 16.3766896,4.99582269 C18.0130667,4.43749433 19.6511992,3.88489134 21.287297,3.32564358 C22.4558414,2.92624657 23.6214335,2.51736299 24.7898981,2.11750627 C26.040391,1.68960776 27.2927591,1.26785254 28.5440898,0.842503284 C29.2581671,0.599822687 29.9718852,0.355804776 30.6852443,0.110783881 C30.7345969,0.0938585075 30.7797604,0.06356 30.8268788,0.0394883582 L30.9864669,0.0394883582 L30.9864669,2.46336896 Z" id="Fill-1" fill="#FFFFFF" mask="url(#mask-2)"></path>
                </g>
                <g id="Group-6" transform="translate(0.000000, 16.000000)">
                    <mask id="mask-4" fill="white">
                        <use xlink:href="#path-3"></use>
                    </mask>
                    <g id="Clip-5"></g>
                    <path d="M4.69772247,0.0164713115 C4.65414978,0.352331967 4.61311454,0.660282787 4.5744978,0.968520492 C4.44052863,2.03806967 4.52636564,3.09409426 4.77765198,4.13589754 C5.27836123,6.21204508 6.38722467,7.89184016 7.96979736,9.23991393 C9.12639648,10.2250779 10.4466211,10.9026598 11.8957004,11.3052828 C13.3408943,11.7068811 14.8106696,11.8002008 16.2958282,11.6565123 C16.78837,11.6088484 17.2776211,11.5254877 17.7685374,11.4595041 C17.8295154,11.4513074 17.891326,11.4494221 17.9527401,11.4445861 C17.9600352,11.4624139 17.96737,11.4803238 17.9747048,11.4981516 C17.847,11.5961025 17.7239339,11.7013074 17.5909956,11.7908566 C16.251978,12.6926598 14.8276388,13.4191762 13.333163,14.0017172 C12.2728678,14.4149959 11.185533,14.7225779 10.0625551,14.8837254 C9.14364317,15.0155697 8.22187665,15.0387254 7.29713656,14.9354877 C6.14676211,14.807127 5.05427313,14.4795861 4.04397357,13.8981107 C1.9857489,12.7134385 0.605299559,10.9704877 0.137656388,8.55765984 C-0.121638767,7.21983197 -0.0142334802,5.87765984 0.456264317,4.58684016 C0.917286344,3.32188115 1.63661233,2.23626639 2.66320705,1.39540574 C3.23536123,0.92679918 3.85624229,0.521717213 4.45611013,0.0894221311 C4.49345815,0.0625368852 4.53837885,0.0456106557 4.58163436,0.0292581967 C4.60470925,0.0205696721 4.63178855,0.0230696721 4.69772247,0.0164713115" id="Fill-4" fill="#FFFFFF" mask="url(#mask-4)"></path>
                </g>
            </g>
        </g>
    </g>
</svg>